<?xml version="1.0" encoding="utf-8"?>
<!-- Generator: Adobe Illustrator 24.0.0, SVG Export Plug-In . SVG Version: 6.00 Build 0)  -->
<svg version="1.1" id="Layer_1" xmlns="http://www.w3.org/2000/svg" xmlns:xlink="http://www.w3.org/1999/xlink" x="0px" y="0px"
	 viewBox="0 0 40 27" style="enable-background:new 0 0 40 27;" xml:space="preserve">
<path d="M1.8,11.7c-1,0-1.8,0.8-1.8,1.8s0.8,1.8,1.8,1.8V11.7z M39.5,14.8c0.7-0.7,0.7-1.9,0-2.6L27.9,0.5c-0.7-0.7-1.9-0.7-2.6,0
	c-0.7,0.7-0.7,1.9,0,2.6l10.3,10.4L25.3,23.9c-0.7,0.7-0.7,1.9,0,2.6c0.7,0.7,1.9,0.7,2.6,0L39.5,14.8z M1.8,15.3h36.4v-3.7H1.8
	V15.3z"/>
</svg>
