<svg width="32" height="32" viewBox="0 0 32 32" fill="none" xmlns="http://www.w3.org/2000/svg">
<g clip-path="url(#clip0_37_65)">
<path d="M26.3333 0H5.66667C2.53705 0 0 2.53705 0 5.66667V25.5333C0 28.6629 2.53705 31.2 5.66667 31.2H26.3333C29.4629 31.2 32 28.6629 32 25.5333V5.66667C32 2.53705 29.4629 0 26.3333 0Z" fill="#00005B"/>
<path d="M12.8554 18.6666H7.8965L6.88758 21.8068C6.87385 21.8639 6.8406 21.9145 6.79357 21.9498C6.74654 21.9851 6.68868 22.0028 6.62997 22H4.11838C3.97515 22 3.92506 21.9213 3.96811 21.7638L8.26147 9.45014C8.30437 9.32137 8.34734 9.19547 8.39025 9.03075C8.44647 8.74435 8.47522 8.45324 8.47611 8.16138C8.47321 8.14097 8.47509 8.12016 8.48161 8.10061C8.48814 8.08105 8.49912 8.06327 8.5137 8.04869C8.52828 8.03411 8.54605 8.02313 8.5656 8.0166C8.58516 8.01007 8.60597 8.00819 8.62638 8.01109H12.0396C12.1395 8.01109 12.1968 8.04688 12.2113 8.11845L17.0843 21.7853C17.1272 21.9285 17.0842 22.0001 16.9555 22H14.1648C14.1169 22.0053 14.0686 21.993 14.0291 21.9653C13.9896 21.9377 13.9616 21.8966 13.9501 21.8497L12.8554 18.6666ZM8.66935 16.019H12.0611C11.9752 15.7329 11.875 15.4109 11.7605 15.0529C11.6458 14.6954 11.5241 14.3126 11.3956 13.9045C11.2668 13.4966 11.138 13.0888 11.0092 12.6809C10.8804 12.273 10.7623 11.8795 10.655 11.5002C10.5477 11.1212 10.4511 10.7742 10.3652 10.4591H10.3437C10.2229 11.0389 10.0724 11.6121 9.89291 12.1764C9.69233 12.8204 9.4884 13.4787 9.28113 14.1513C9.07352 14.8242 8.86959 15.4467 8.66935 16.019Z" fill="#9999FF"/>
<path d="M24.9842 17.4443H20.7552C20.807 17.8628 20.946 18.2657 21.1631 18.6271C21.4032 18.985 21.7427 19.2648 22.1398 19.4321C22.678 19.665 23.2601 19.7791 23.8465 19.7666C24.3116 19.7576 24.775 19.7068 25.231 19.6146C25.6389 19.5595 26.0386 19.4553 26.4215 19.3042C26.4929 19.2472 26.5288 19.2828 26.5288 19.4116V21.4509C26.5324 21.5065 26.5212 21.562 26.4966 21.6119C26.472 21.6509 26.439 21.6839 26.4 21.7085C25.9753 21.8966 25.5284 22.0297 25.07 22.1047C24.4473 22.2217 23.8145 22.2756 23.181 22.2657C22.1646 22.2657 21.3131 22.1083 20.6264 21.7934C19.9772 21.5075 19.4039 21.0737 18.9521 20.5269C18.53 20.0116 18.216 19.4166 18.0289 18.7773C17.8437 18.1464 17.7497 17.4922 17.7499 16.8346C17.7479 16.1166 17.8602 15.4029 18.0827 14.7202C18.2968 14.0542 18.6356 13.435 19.0808 12.8955C19.52 12.3623 20.0692 11.9302 20.6909 11.6289C21.3204 11.3214 22.0647 11.211 22.9233 11.211C23.6355 11.193 24.3428 11.3323 24.9949 11.6189C25.5433 11.8527 26.026 12.2173 26.401 12.6808C26.7526 13.1346 27.0215 13.647 27.1952 14.1942C27.3644 14.7216 27.4512 15.2719 27.4528 15.8257C27.4528 16.1406 27.4421 16.4269 27.4206 16.6844C27.3992 16.9419 27.3813 17.128 27.367 17.2425C27.3614 17.2898 27.3386 17.3334 27.303 17.3651C27.2674 17.3968 27.2214 17.4142 27.1737 17.4142C27.0879 17.4142 26.9412 17.425 26.7337 17.4464C26.5261 17.4679 26.2685 17.4822 25.9609 17.4894C25.653 17.4967 25.3276 17.4443 24.9842 17.4443ZM20.7552 15.4888H23.5674C23.9108 15.4888 24.1649 15.4852 24.3294 15.4781C24.4395 15.4671 24.5458 15.4318 24.6407 15.3749V15.2461C24.6364 15.0782 24.6075 14.9118 24.5549 14.7523C24.439 14.3861 24.2062 14.068 23.892 13.847C23.5779 13.6259 23.1999 13.5141 22.8161 13.5287C22.4548 13.5069 22.095 13.5907 21.7805 13.7698C21.466 13.949 21.2105 14.2158 21.045 14.5377C20.898 14.8371 20.8001 15.1582 20.7552 15.4888Z" fill="#9999FF"/>
</g>
<defs>
<clipPath id="clip0_37_65">
<rect width="32" height="31.2" fill="white"/>
</clipPath>
</defs>
</svg>
