<svg width="32" height="32" viewBox="0 0 32 32" fill="none" xmlns="http://www.w3.org/2000/svg">
<g clip-path="url(#clip0_37_45)">
<path d="M26.3333 0H5.66667C2.53705 0 0 2.53705 0 5.66667V25.5333C0 28.6629 2.53705 31.2 5.66667 31.2H26.3333C29.4629 31.2 32 28.6629 32 25.5333V5.66667C32 2.53705 29.4629 0 26.3333 0Z" fill="#00005B"/>
<path d="M12.9391 18.6668H7.98028L6.96192 21.7958C6.94817 21.8529 6.91492 21.9035 6.8679 21.9388C6.82087 21.974 6.76302 21.9918 6.70431 21.989H4.19272C4.04949 21.989 3.9994 21.9103 4.04245 21.7529L8.35363 9.45026C8.3966 9.32149 8.4395 9.2067 8.48248 9.04199C8.53863 8.75558 8.56738 8.46448 8.56834 8.17262C8.56543 8.1522 8.56731 8.13139 8.57383 8.11183C8.58035 8.09227 8.59134 8.0745 8.60591 8.05992C8.62049 8.04534 8.63827 8.03435 8.65783 8.02782C8.67739 8.0213 8.6982 8.01942 8.71861 8.02232H12.1318C12.2318 8.02232 12.289 8.05811 12.3035 8.12968L17.1586 21.7743C17.2015 21.9175 17.1586 21.9891 17.0298 21.989H14.2391C14.1911 21.9943 14.1429 21.982 14.1034 21.9543C14.0639 21.9267 14.0358 21.8856 14.0244 21.8387L12.9391 18.6668ZM8.76151 16.0191H12.1532C12.0674 15.733 11.9672 15.411 11.8527 15.0531C11.738 14.6955 11.6164 14.3127 11.4878 13.9046C11.359 13.4967 11.2302 13.0889 11.1014 12.681C10.9726 12.2731 10.8545 11.8796 10.7472 11.5003C10.6398 11.1213 10.5432 10.7743 10.4574 10.4592H10.4359C10.3151 11.039 10.1646 11.6122 9.98515 12.1765C9.78456 12.8205 9.58061 13.4789 9.3733 14.1515C9.16568 14.8243 8.96175 15.4469 8.76151 16.0191Z" fill="#9999FF"/>
<path d="M18.6612 21.7846V13.8723C18.6612 13.6291 18.6577 13.3572 18.6506 13.0566C18.6431 12.756 18.6324 12.4698 18.6183 12.1979C18.6039 11.9262 18.5895 11.6738 18.5754 11.5162C18.5671 11.4948 18.5646 11.4715 18.5684 11.4488C18.5722 11.4261 18.582 11.4049 18.5969 11.3874C18.6144 11.372 18.6348 11.3603 18.6569 11.3529C18.6791 11.3455 18.7024 11.3426 18.7257 11.3444H20.8686C20.9425 11.342 21.016 11.3567 21.0833 11.3874C21.1118 11.4021 21.1364 11.4234 21.1551 11.4495C21.1737 11.4757 21.1859 11.5059 21.1906 11.5376C21.2191 11.6235 21.2513 11.7201 21.2872 11.8274C21.3267 11.9695 21.3519 12.1152 21.3623 12.2623C21.7774 11.8987 22.2583 11.6181 22.7791 11.4358C23.2969 11.2566 23.8412 11.1659 24.3891 11.1675C24.8158 11.1695 25.2396 11.2383 25.6449 11.3714C26.1129 11.5211 26.5397 11.7773 26.8918 12.1201C27.2438 12.4628 27.5114 12.8826 27.6735 13.3464C27.8882 13.8974 27.9724 14.6095 27.9724 15.4823V21.7846C27.9724 21.9134 27.9151 21.9778 27.8006 21.9778L25.2923 22C25.2631 22.0042 25.2334 22.0015 25.2054 21.9922C25.1775 21.9829 25.1521 21.9672 25.1312 21.9464C25.1104 21.9255 25.0947 21.9001 25.0854 21.8722C25.0761 21.8442 25.0734 21.8145 25.0776 21.7853V15.8059C25.0706 15.4054 24.9825 15.0105 24.8184 14.6451C24.7033 14.3755 24.5133 14.1446 24.271 13.9796C23.9972 13.812 23.6795 13.7298 23.3587 13.7435C23.0138 13.7386 22.6712 13.8006 22.3498 13.926C22.056 14.0433 21.7866 14.2144 21.5555 14.4304V21.7846C21.5555 21.9134 21.4983 21.9778 21.3838 21.9778H18.8545C18.8282 21.9815 18.8015 21.9791 18.7763 21.9707C18.7512 21.9623 18.7283 21.9482 18.7096 21.9295C18.6908 21.9107 18.6767 21.8879 18.6683 21.8627C18.6599 21.8376 18.6575 21.8108 18.6612 21.7846Z" fill="#9999FF"/>
</g>
<defs>
<clipPath id="clip0_37_45">
<rect width="32" height="31.2" fill="white"/>
</clipPath>
</defs>
</svg>
