<svg width="32" height="32" viewBox="0 0 32 32" fill="none" xmlns="http://www.w3.org/2000/svg">
<g clip-path="url(#clip0_37_30)">
<path d="M26.3333 0H5.66667C2.53705 0 0 2.53705 0 5.66667V25.5333C0 28.6629 2.53705 31.2 5.66667 31.2H26.3333C29.4629 31.2 32 28.6629 32 25.5333V5.66667C32 2.53705 29.4629 0 26.3333 0Z" fill="#00005B"/>
<path d="M12.5764 18.6665H7.61757L6.60865 21.8066C6.59492 21.8638 6.56167 21.9143 6.51464 21.9496C6.46761 21.9849 6.40975 22.0026 6.35103 21.9998H3.83945C3.69622 21.9998 3.64613 21.9211 3.68918 21.7637L7.98255 9.44998C8.02545 9.3212 8.06837 9.17451 8.11132 9.00991C8.17685 8.73103 8.21198 8.44587 8.21608 8.15943C8.21318 8.13902 8.21506 8.11821 8.22158 8.09865C8.22811 8.07909 8.23909 8.06132 8.25367 8.04674C8.26825 8.03216 8.28601 8.02118 8.30557 8.01465C8.32513 8.00812 8.34593 8.00623 8.36634 8.00914H11.7796C11.8795 8.00914 11.9367 8.04492 11.9513 8.11649L16.8053 21.7851C16.8482 21.9284 16.8053 21.9999 16.6765 21.9998H13.8859C13.8379 22.0051 13.7897 21.9928 13.7502 21.9652C13.7107 21.9375 13.6826 21.8964 13.6712 21.8496L12.5764 18.6665ZM8.39043 16.0188H11.7822C11.6963 15.7327 11.5961 15.4107 11.4816 15.0528C11.3669 14.6952 11.2452 14.3124 11.1167 13.9043C10.9879 13.4965 10.8591 13.0886 10.7303 12.6807C10.6015 12.2729 10.4834 11.8793 10.376 11.5C10.2687 11.121 10.1722 10.774 10.0863 10.4589H10.0648C9.94399 11.0387 9.79353 11.6119 9.61399 12.1762C9.41341 12.8203 9.20948 13.4786 9.00221 14.1512C8.79459 14.824 8.59066 15.4466 8.39042 16.0188H8.39043Z" fill="#9999FF"/>
<path d="M27.0449 11.4946V19.6682C27.0449 20.0261 27.0485 20.3445 27.0557 20.6234C27.0627 20.9025 27.077 21.1458 27.0986 21.3533C27.1201 21.5609 27.1378 21.6853 27.1523 21.8281C27.1663 21.9428 27.1164 21.9999 27.002 21.9999H24.7051C24.6517 22.0055 24.598 21.994 24.5517 21.9669C24.5053 21.9399 24.4688 21.8988 24.4475 21.8496C24.4166 21.7401 24.3915 21.629 24.3723 21.5169C24.3522 21.4243 24.3414 21.33 24.3401 21.2352C23.9081 21.6207 23.3943 21.9033 22.8374 22.0617C22.3546 22.1932 21.8567 22.2618 21.3563 22.2657C20.8641 22.2716 20.3744 22.1954 19.9073 22.0402C19.4746 21.8925 19.0842 21.6421 18.7695 21.3104C18.4279 20.9412 18.1715 20.5015 18.0182 20.0224C17.8256 19.408 17.7349 18.7663 17.7499 18.1226V11.5161C17.7465 11.4927 17.7487 11.4689 17.7561 11.4466C17.7636 11.4242 17.7761 11.4039 17.7928 11.3872C17.8095 11.3706 17.8298 11.358 17.8521 11.3506C17.8745 11.3431 17.8983 11.341 17.9216 11.3443H20.4727C20.496 11.341 20.5198 11.3431 20.5422 11.3506C20.5645 11.3581 20.5848 11.3706 20.6015 11.3873C20.6181 11.4039 20.6307 11.4243 20.6382 11.4466C20.6456 11.4689 20.6478 11.4927 20.6445 11.5161V17.7791C20.6445 18.3661 20.7733 18.8276 21.0309 19.1637C21.2885 19.5001 21.8071 19.6682 22.4082 19.6682C22.7162 19.672 23.0221 19.6173 23.3097 19.5072C23.6109 19.4009 23.8957 19.2528 24.1556 19.0671V11.4946C24.1556 11.3946 24.22 11.3443 24.3488 11.3443H26.8947C26.9151 11.3414 26.9359 11.3433 26.9554 11.3499C26.975 11.3564 26.9927 11.3674 27.0073 11.382C27.0219 11.3966 27.0328 11.4143 27.0394 11.4339C27.0459 11.4534 27.0478 11.4742 27.0449 11.4946Z" fill="#9999FF"/>
</g>
<defs>
<clipPath id="clip0_37_30">
<rect width="32" height="31.2" fill="white"/>
</clipPath>
</defs>
</svg>
