<svg width="32" height="32" viewBox="0 0 32 32" fill="none" xmlns="http://www.w3.org/2000/svg">
<path d="M30.0863 9.46009C30.0863 8.93067 29.9735 8.45332 29.7391 8.05405C29.5135 7.65483 29.175 7.32503 28.7237 7.06465C24.9743 4.90352 21.2162 2.74243 17.4668 0.581304C16.4513 -0.00020802 15.4792 0.0171576 14.4725 0.607334C12.9796 1.48395 5.49818 5.77144 3.27633 7.06465C2.35632 7.59407 1.91369 8.40992 1.91369 9.46879V22.5222C1.91369 23.043 2.02652 23.503 2.24349 23.9022C2.46918 24.3102 2.81634 24.6573 3.27633 24.9264C5.50689 26.2196 12.9796 30.4984 14.4725 31.3837C15.4792 31.9738 16.46 31.9998 17.4668 31.4097C21.2162 29.2399 24.9743 27.0875 28.7237 24.9264C29.1923 24.6573 29.5308 24.3188 29.7565 23.9022C29.9735 23.503 30.0863 23.043 30.0863 22.5222V9.46009Z" fill="#9A4993"/>
<path d="M16.0347 15.9438L2.22613 23.894C2.45181 24.3019 2.79898 24.649 3.25897 24.9181C5.48952 26.2113 12.9623 30.4901 14.4551 31.3754C15.4619 31.9656 16.4426 31.9917 17.4494 31.4014C21.1988 29.2316 24.9569 27.0792 28.7063 24.9181C29.175 24.649 29.5135 24.3106 29.7391 23.894L16.0347 15.9438Z" fill="#6A1577"/>
<path d="M11.9468 18.2959C12.754 19.7019 14.2641 20.648 15.9913 20.648C17.7358 20.648 19.2547 19.6933 20.0532 18.2699L16.0347 15.9438L11.9468 18.2959Z" fill="#6A1577"/>
<path d="M30.0863 9.46023C30.0863 8.93082 29.9734 8.45346 29.7391 8.0542L16.0347 15.9436L29.7565 23.8937C29.9734 23.4945 30.0863 23.0345 30.0863 22.5137V9.46023Z" fill="#813084"/>
<path d="M20.0532 18.2696C19.2547 19.6843 17.7359 20.6477 15.9913 20.6477C14.2555 20.6477 12.7453 19.7017 11.9468 18.2956C11.5563 17.61 11.3306 16.8289 11.3306 15.987C11.3306 13.4093 13.4136 11.3263 15.9913 11.3263C17.7098 11.3263 19.2113 12.2636 20.0185 13.6523L24.089 11.3089C22.466 8.51425 19.4456 6.63086 15.9827 6.63086C10.8098 6.63086 6.62651 10.8229 6.62651 15.987C6.62651 17.6794 7.0778 19.2764 7.86763 20.6477C9.48194 23.4511 12.5196 25.3431 15.9913 25.3431C19.4717 25.3431 22.5094 23.4424 24.1237 20.6217L20.0532 18.2696ZM25.1999 13.7738H24.2712V18.261H25.1999V13.7738ZM27.2569 13.7738H26.3282V18.261H27.2569V13.7738Z" fill="white"/>
<path d="M28.012 14.5288H23.5248V15.4575H28.012V14.5288ZM28.012 16.5771H23.5248V17.5058H28.012V16.5771Z" fill="white"/>
</svg>
