<svg width="22" height="32" viewBox="0 0 22 32" fill="none" xmlns="http://www.w3.org/2000/svg">
<g clip-path="url(#clip0_39_104)">
<path d="M10.6667 15.9998C10.6667 14.5853 11.2286 13.2288 12.2288 12.2286C13.229 11.2284 14.5855 10.6665 16 10.6665C17.4145 10.6665 18.7711 11.2284 19.7713 12.2286C20.7715 13.2288 21.3334 14.5853 21.3334 15.9998C21.3334 17.4143 20.7715 18.7709 19.7713 19.7711C18.7711 20.7713 17.4145 21.3332 16 21.3332C14.5855 21.3332 13.229 20.7713 12.2288 19.7711C11.2286 18.7709 10.6667 17.4143 10.6667 15.9998Z" fill="#1ABCFE"/>
<path d="M0 26.6668C0 25.2523 0.561903 23.8958 1.5621 22.8956C2.56229 21.8954 3.91885 21.3335 5.33333 21.3335H10.6667V26.6668C10.6667 28.0813 10.1048 29.4379 9.10457 30.4381C8.10437 31.4383 6.74782 32.0002 5.33333 32.0002C3.91885 32.0002 2.56229 31.4383 1.5621 30.4381C0.561903 29.4379 0 28.0813 0 26.6668H0Z" fill="#0ACF83"/>
<path d="M10.6667 0V10.6667H16C17.4145 10.6667 18.7711 10.1048 19.7713 9.10457C20.7715 8.10437 21.3334 6.74782 21.3334 5.33333C21.3334 3.91885 20.7715 2.56229 19.7713 1.5621C18.7711 0.561903 17.4145 0 16 0L10.6667 0Z" fill="#FF7262"/>
<path d="M0 5.33333C0 6.74782 0.561903 8.10437 1.5621 9.10457C2.56229 10.1048 3.91885 10.6667 5.33333 10.6667H10.6667V0H5.33333C3.91885 0 2.56229 0.561903 1.5621 1.5621C0.561903 2.56229 0 3.91885 0 5.33333H0Z" fill="#F24E1E"/>
<path d="M0 15.9998C0 17.4143 0.561903 18.7709 1.5621 19.7711C2.56229 20.7713 3.91885 21.3332 5.33333 21.3332H10.6667V10.6665H5.33333C3.91885 10.6665 2.56229 11.2284 1.5621 12.2286C0.561903 13.2288 0 14.5853 0 15.9998H0Z" fill="#A259FF"/>
</g>
<defs>
<clipPath id="clip0_39_104">
<rect width="21.3333" height="32" fill="white"/>
</clipPath>
</defs>
</svg>
