<svg width="32" height="32" viewBox="0 0 32 32" fill="none" xmlns="http://www.w3.org/2000/svg">
<g clip-path="url(#clip0_37_75)">
<path d="M26.3333 0H5.66667C2.53705 0 0 2.53705 0 5.66667V25.5333C0 28.6629 2.53705 31.2 5.66667 31.2H26.3333C29.4629 31.2 32 28.6629 32 25.5333V5.66667C32 2.53705 29.4629 0 26.3333 0Z" fill="#330000"/>
<path d="M15.5067 18.7234H10.5479L9.53901 21.8576C9.52526 21.9147 9.49201 21.9653 9.44498 22.0006C9.39796 22.0358 9.34011 22.0536 9.28139 22.0508H6.76981C6.62658 22.0508 6.57649 21.9721 6.61954 21.8146L10.9128 9.44983C10.9558 9.32106 10.9988 9.17437 11.0417 9.00976C11.0978 8.72335 11.1266 8.43225 11.1275 8.14039C11.1246 8.11998 11.1265 8.09917 11.133 8.07961C11.1396 8.06005 11.1505 8.04227 11.1651 8.02769C11.1797 8.01311 11.1975 8.00212 11.217 7.9956C11.2366 7.98907 11.2574 7.98719 11.2778 7.9901H14.691C14.791 7.9901 14.8482 8.02588 14.8627 8.09746L19.7357 21.8361C19.7786 21.9793 19.7356 22.0509 19.6068 22.0508H16.8162C16.7682 22.0561 16.72 22.0438 16.6805 22.0161C16.641 21.9885 16.6129 21.9474 16.6015 21.9005L15.5067 18.7234ZM11.3207 16.0186H14.7125C14.6266 15.7325 14.5264 15.4105 14.4119 15.0526C14.2972 14.6951 14.1756 14.3123 14.047 13.9042C13.9182 13.4963 13.7894 13.0884 13.6606 12.6806C13.5318 12.2727 13.4137 11.8792 13.3064 11.4999C13.199 11.1209 13.1024 10.7739 13.0166 10.4588H12.9951C12.8743 11.0385 12.7238 11.6117 12.5444 12.1761C12.3438 12.8201 12.1398 13.4784 11.9325 14.151C11.7249 14.8239 11.521 15.4464 11.3207 16.0186H11.3207Z" fill="#FF9A00"/>
<path d="M22.6334 10.2658C22.4144 10.2746 22.1961 10.2371 21.9926 10.1557C21.7892 10.0744 21.6052 9.95095 21.4527 9.79358C21.3006 9.62939 21.1825 9.43677 21.1052 9.22678C21.0278 9.01679 20.9927 8.79358 21.0019 8.56998C20.9941 8.3486 21.033 8.12805 21.1163 7.92276C21.1995 7.71746 21.3251 7.53203 21.4849 7.37858C21.6431 7.22671 21.8298 7.10773 22.0343 7.02851C22.2389 6.94929 22.457 6.91141 22.6763 6.91705C23.1915 6.91705 23.5958 7.07089 23.8892 7.37858C24.0372 7.53848 24.1523 7.72601 24.2278 7.93045C24.3033 8.13489 24.3378 8.35222 24.3292 8.56998C24.3382 8.79446 24.3019 9.01844 24.2227 9.22864C24.1434 9.43884 24.0227 9.63095 23.8677 9.79358C23.7057 9.95326 23.5124 10.0777 23.3 10.1589C23.0875 10.2402 22.8606 10.2766 22.6334 10.2658ZM21.1521 21.8364V11.5753C21.1521 11.4465 21.2092 11.3821 21.3239 11.3821H23.9643C24.0787 11.3821 24.1359 11.4465 24.136 11.5753V21.8364C24.136 21.9796 24.0788 22.0511 23.9643 22.051H21.3453C21.2166 22.051 21.1522 21.9795 21.1521 21.8364Z" fill="#FF9A00"/>
</g>
<defs>
<clipPath id="clip0_37_75">
<rect width="32" height="31.2" fill="white"/>
</clipPath>
</defs>
</svg>
