<svg width="32" height="32" viewBox="0 0 32 32" fill="none" xmlns="http://www.w3.org/2000/svg">
<g clip-path="url(#clip0_39_150)">
<path d="M31.9605 31.9969C21.3536 31.9969 10.7468 31.9969 0.136887 32C0.0243399 32 -0.0030365 31.9756 -0.0030365 31.86C0.00304715 21.2502 0.00304715 10.6433 0.00304715 0.0334294C0.0790928 0.0334294 0.155138 0.0334294 0.231184 0.0334294C10.7255 0.0334294 21.2198 0.0334294 31.7141 0.0334294C31.7658 0.0334294 31.8145 0.0364712 31.8662 0.0334294C31.9361 0.0303876 31.9696 0.057764 31.9635 0.130768C31.9605 0.182479 31.9635 0.231148 31.9635 0.282859C31.9635 10.7741 31.9635 21.2623 31.9635 31.7536C31.9635 31.8357 31.9635 31.9148 31.9605 31.9969ZM24.4593 29.4631C25.1924 29.457 25.9133 29.3718 26.6129 29.1376C27.5985 28.803 28.4137 28.2433 28.943 27.3216C29.3627 26.5886 29.4783 25.7916 29.4388 24.9612C29.381 23.7475 28.9065 22.7407 27.9574 21.968C27.3065 21.4388 26.5673 21.0616 25.8099 20.7178C25.2167 20.4471 24.6053 20.219 24.0213 19.9239C23.7262 19.7749 23.4464 19.6076 23.2122 19.3673C22.6981 18.8471 22.6646 17.5939 23.708 17.2441C24.4259 17.0007 25.0981 17.1254 25.67 17.6547C25.8799 17.8494 26.0411 18.0836 26.181 18.33C26.2205 18.3969 26.2479 18.4121 26.3209 18.3665C27.0449 17.8981 27.7688 17.4327 28.4928 16.9703C28.5536 16.9308 28.5627 16.9003 28.5262 16.8395C28.0608 16.0517 27.4738 15.3825 26.6281 14.9931C25.3992 14.4243 24.1217 14.3817 22.8289 14.7194C21.7825 14.9931 20.9551 15.5893 20.4076 16.5414C19.9909 17.2684 19.8692 18.0593 19.924 18.8867C19.997 19.9635 20.3985 20.8882 21.2015 21.6243C21.8464 22.2144 22.6068 22.6129 23.3977 22.9597C24.0152 23.2304 24.6388 23.4768 25.2411 23.781C25.5392 23.933 25.8312 24.0973 26.0654 24.3437C26.4152 24.7057 26.5156 25.1407 26.4122 25.6213C26.2996 26.1262 25.9529 26.4486 25.4844 26.6068C24.3802 26.984 23.3369 26.8502 22.403 26.1201C22.0472 25.8433 21.7764 25.4874 21.5361 25.1102C21.4783 25.019 21.4388 24.9886 21.3293 25.0524C20.5962 25.4844 19.8601 25.9102 19.1209 26.33C19.0297 26.3817 19.0175 26.4213 19.0692 26.5156C19.5133 27.3338 20.1186 28 20.9034 28.5049C21.9863 29.1954 23.1909 29.4509 24.4593 29.4631ZM17.3658 20.146C17.3688 20.146 17.3719 20.146 17.378 20.146C17.378 18.3817 17.378 16.6175 17.381 14.8562C17.381 14.7224 17.3506 14.6889 17.2137 14.6889C16.3316 14.695 15.4494 14.695 14.5673 14.6889C14.4183 14.6889 14.3757 14.7194 14.3757 14.8775C14.3818 18.1931 14.3787 21.5057 14.3787 24.8213C14.3787 25.0737 14.3665 25.3292 14.3209 25.5787C14.2388 26.0228 14.0715 26.4243 13.6274 26.622C13.0525 26.8806 12.0517 26.9232 11.4494 26.1749C11.2395 25.9133 11.0601 25.6334 10.8958 25.3414C10.8502 25.2593 10.8167 25.2532 10.7376 25.3019C9.99544 25.7551 9.2502 26.2053 8.50191 26.6524C8.42586 26.6981 8.39544 26.7346 8.44411 26.8289C8.94297 27.8175 9.66388 28.5779 10.6859 29.0281C11.7992 29.5178 12.9643 29.5695 14.1415 29.3445C15.0814 29.165 15.8905 28.7452 16.4867 27.9726C17.0768 27.2091 17.3354 26.3209 17.3506 25.381C17.3871 23.635 17.3658 21.892 17.3658 20.146Z" fill="#EFDA4F"/>
<path d="M31.9605 31.997C31.9605 31.9148 31.9605 31.8357 31.9605 31.7536C31.9605 21.2624 31.9605 10.7741 31.9605 0.28289C31.9605 0.231179 31.9574 0.18251 31.9605 0.130798C31.9635 0.0577947 31.9331 0.0304183 31.8631 0.0334601C31.8114 0.0365019 31.7627 0.0334601 31.711 0.0334601C21.2167 0.0334601 10.7224 0.0334601 0.228137 0.0334601C0.152092 0.0334601 0.0760461 0.0334601 4.83938e-07 0.0334601C0.00608413 0.0243346 -0.0152086 0.00304183 0.0152096 0.00304183C0.0547533 0.00304183 0.0973389 0.00304183 0.136883 0.00304183C10.7072 0.00304183 21.2745 0.00304183 31.8449 0C31.9696 0 31.9939 0.0243346 31.9939 0.149049C31.9909 10.7194 31.9909 21.2897 31.9878 31.8631C31.9909 31.9057 32.0243 31.9635 31.9605 31.997Z" fill="#FDFBF0"/>
<path d="M24.4593 29.4632C23.1909 29.451 21.9863 29.1955 20.9034 28.502C20.1186 28.0001 19.5133 27.3309 19.0692 26.5126C19.0205 26.4214 19.0297 26.3818 19.1209 26.3271C19.8601 25.9043 20.5962 25.4814 21.3293 25.0495C21.4388 24.9856 21.4783 25.013 21.5361 25.1073C21.7734 25.4875 22.0472 25.8404 22.4031 26.1172C23.3369 26.8503 24.3772 26.9811 25.4844 26.6039C25.9529 26.4457 26.2996 26.1233 26.4122 25.6183C26.5186 25.1377 26.4152 24.7027 26.0654 24.3408C25.8312 24.0974 25.5392 23.9301 25.2411 23.778C24.6388 23.4738 24.0152 23.2274 23.3977 22.9567C22.6069 22.61 21.8464 22.2115 21.2015 21.6214C20.3985 20.8852 19.997 19.9605 19.924 18.8837C19.8692 18.0563 19.9878 17.2655 20.4076 16.5385C20.9551 15.5864 21.7825 14.9902 22.8289 14.7164C24.1217 14.3788 25.3993 14.4214 26.6281 14.9902C27.4738 15.3795 28.0608 16.0487 28.5262 16.8366C28.5627 16.9005 28.5536 16.9309 28.4928 16.9674C27.7688 17.4297 27.0418 17.8951 26.3209 18.3636C26.251 18.4092 26.2205 18.394 26.181 18.3271C26.038 18.0807 25.8799 17.8465 25.67 17.6518C25.1012 17.1225 24.4289 16.9978 23.708 17.2411C22.6647 17.594 22.6981 18.8442 23.2122 19.3643C23.4464 19.6016 23.7293 19.7719 24.0213 19.921C24.6053 20.216 25.2167 20.4472 25.8099 20.7149C26.5673 21.0586 27.3065 21.4358 27.9574 21.9651C28.9095 22.7377 29.384 23.7415 29.4388 24.9582C29.4783 25.7887 29.3597 26.5856 28.943 27.3187C28.4167 28.2404 27.6015 28.8001 26.6129 29.1347C25.9133 29.3719 25.1924 29.4571 24.4593 29.4632Z" fill="#323330"/>
<path d="M17.3658 20.1462C17.3658 21.8892 17.3871 23.6322 17.3567 25.3751C17.3414 26.3181 17.0829 27.2063 16.4928 27.9668C15.8966 28.7394 15.0844 29.1592 14.1475 29.3386C12.9703 29.5637 11.8084 29.512 10.692 29.0223C9.66996 28.5721 8.94905 27.8116 8.45019 26.823C8.40456 26.7287 8.43194 26.6922 8.50798 26.6466C9.25323 26.1995 9.99848 25.7493 10.7437 25.296C10.8228 25.2474 10.8563 25.2534 10.9019 25.3356C11.0631 25.6276 11.2426 25.9074 11.4555 26.169C12.0578 26.9143 13.0586 26.8717 13.6335 26.6162C14.0776 26.4185 14.2418 26.0169 14.327 25.5728C14.3726 25.3234 14.3848 25.0709 14.3848 24.8154C14.3848 21.4998 14.3848 18.1873 14.3817 14.8717C14.3817 14.7135 14.4243 14.6831 14.5734 14.6831C15.4555 14.6892 16.3376 14.6892 17.2198 14.6831C17.3567 14.6831 17.3871 14.7196 17.3871 14.8504C17.384 16.6147 17.384 18.3789 17.384 20.1401C17.3719 20.1462 17.3688 20.1462 17.3658 20.1462Z" fill="#323330"/>
</g>
<defs>
<clipPath id="clip0_39_150">
<rect width="32" height="32" fill="white"/>
</clipPath>
</defs>
</svg>
