<svg width="32" height="32" viewBox="0 0 32 32" fill="none" xmlns="http://www.w3.org/2000/svg">
<g clip-path="url(#clip0_39_182)">
<path d="M16.1775 31.1668C24.5887 31.1668 31.4074 24.3481 31.4074 15.9369C31.4074 7.52567 24.5887 0.707031 16.1775 0.707031C7.76627 0.707031 0.947632 7.52567 0.947632 15.9369C0.947632 24.3481 7.76627 31.1668 16.1775 31.1668Z" fill="url(#paint0_linear_39_182)"/>
<path d="M15.9985 0C7.16427 0 0 7.16427 0 15.9985C0 24.8326 7.16427 31.9969 15.9985 31.9969C24.8326 31.9969 31.9969 24.8326 31.9969 15.9985C31.9969 7.16427 24.8357 0 15.9985 0ZM23.5702 3.46947C25.7371 4.76898 27.3267 6.36172 28.617 8.53477C29.5306 10.075 30.1171 11.6524 30.4289 13.4149C30.506 13.8532 30.4196 14.1649 30.1233 14.4983C28.4194 16.4275 26.5273 18.0048 24.3264 19.3352C24.1258 19.4556 23.8819 19.2735 23.9437 19.0481C25.2895 14.0044 25.0271 8.6675 23.1967 3.78123C23.1103 3.55281 23.3603 3.34292 23.5702 3.46947ZM9.00704 3.23797C11.214 2.00945 13.3902 1.43224 15.9182 1.40137C17.7085 1.37976 19.3661 1.66065 21.0514 2.27182C21.4712 2.42307 21.6965 2.65458 21.8385 3.07746C22.6565 5.51905 23.0763 7.94212 23.1288 10.5164C23.1349 10.748 22.851 10.8683 22.6874 10.7047C18.9895 7.0192 14.239 4.57452 9.09038 3.71949C8.84653 3.67937 8.79097 3.35835 9.00704 3.23797ZM1.52484 15.7361C1.56497 13.2081 2.15144 11.035 3.38922 8.83419C4.26584 7.27231 5.34002 5.97897 6.70744 4.82454C7.05006 4.53748 7.36182 4.45722 7.79705 4.54674C10.3189 5.05913 12.6308 5.90798 14.8842 7.14884C15.0879 7.25996 15.0508 7.56555 14.8255 7.62419C9.78798 8.97926 5.29681 11.8746 1.98167 15.9059C1.82734 16.0941 1.51867 15.9799 1.52484 15.7361ZM8.60577 28.4657C6.43889 27.1662 4.84923 25.5735 3.55899 23.4004C2.64532 21.8601 2.05884 20.2828 1.74708 18.5203C1.66991 18.082 1.75634 17.7702 2.05267 17.4369C3.75654 15.5077 5.64869 13.9304 7.84952 12.6C8.05016 12.4796 8.29401 12.6617 8.23228 12.887C6.88647 17.9307 7.14884 23.2677 8.97926 28.1539C9.06569 28.3824 8.81567 28.5923 8.60577 28.4657ZM23.1689 28.6972C20.9619 29.9257 18.7858 30.5029 16.2577 30.5338C14.4674 30.5554 12.8099 30.2745 11.1245 29.6634C10.7047 29.5121 10.4794 29.2806 10.3374 28.8577C9.51944 26.4161 9.09964 23.9931 9.04717 21.4187C9.041 21.1872 9.32497 21.0668 9.48857 21.2304C13.1834 24.916 17.9369 27.3607 23.0825 28.2157C23.3294 28.2558 23.385 28.5768 23.1689 28.6972ZM25.4685 27.1106C25.1259 27.3977 24.8141 27.478 24.3789 27.3884C21.857 26.876 19.5451 26.0272 17.2918 24.7863C17.0881 24.6752 17.1251 24.3696 17.3504 24.311C22.391 22.9559 26.8822 20.0606 30.1974 16.0293C30.3517 15.841 30.6604 15.9522 30.6542 16.1991C30.6141 18.7271 30.0276 20.9002 28.7898 23.101C27.9101 24.6629 26.839 25.9593 25.4685 27.1106Z" fill="url(#paint1_radial_39_182)"/>
<path d="M17.9462 9.44216C17.6282 9.22301 17.3443 9.16436 16.9646 9.23844C15.0107 9.63663 13.171 10.2447 11.3653 11.0966C11.0165 11.2602 10.822 11.4794 10.6986 11.8436C10.0658 13.7358 9.67378 15.6341 9.50709 17.622C9.47623 18.0047 9.56574 18.2825 9.82194 18.5727C11.1431 20.0666 12.5907 21.3538 14.2298 22.4928C14.5477 22.712 14.8317 22.7706 15.2113 22.6965C17.1652 22.2983 19.0049 21.6903 20.8107 20.8383C21.1595 20.6747 21.3539 20.4556 21.4774 20.0913C22.1102 18.1992 22.5022 16.3009 22.6689 14.313C22.6997 13.9303 22.6102 13.6524 22.354 13.3623C21.0329 11.8683 19.5821 10.5812 17.9462 9.44216Z" fill="url(#paint2_linear_39_182)"/>
</g>
<defs>
<linearGradient id="paint0_linear_39_182" x1="16.1769" y1="31.1665" x2="16.1769" y2="0.704302" gradientUnits="userSpaceOnUse">
<stop stop-color="#0044FF"/>
<stop offset="1" stop-color="#33CCFF"/>
</linearGradient>
<radialGradient id="paint1_radial_39_182" cx="0" cy="0" r="1" gradientUnits="userSpaceOnUse" gradientTransform="translate(15.9995 15.9995) scale(15.9995)">
<stop offset="0.95" stop-color="#F2F2F2"/>
<stop offset="1" stop-color="#CCCBCB"/>
</radialGradient>
<linearGradient id="paint2_linear_39_182" x1="16.0882" y1="22.7273" x2="16.0882" y2="9.20721" gradientUnits="userSpaceOnUse">
<stop/>
<stop offset="1" stop-color="#555555"/>
</linearGradient>
<clipPath id="clip0_39_182">
<rect width="32" height="32" fill="white"/>
</clipPath>
</defs>
</svg>
