<svg width="32" height="32" viewBox="0 0 32 32" fill="none" xmlns="http://www.w3.org/2000/svg">
<g clip-path="url(#clip0_37_55)">
<path d="M26.3333 0H5.66667C2.53705 0 0 2.53705 0 5.66667V25.5333C0 28.6629 2.53705 31.2 5.66667 31.2H26.3333C29.4629 31.2 32 28.6629 32 25.5333V5.66667C32 2.53705 29.4629 0 26.3333 0Z" fill="#001E36"/>
<path d="M16.8053 22.0512H8.34747C8.2043 22.0512 8.13275 21.9725 8.13282 21.815V8.18369C8.12907 8.15744 8.13149 8.13068 8.13987 8.10553C8.14826 8.08038 8.16238 8.05753 8.18113 8.03878C8.19988 8.02003 8.22274 8.00591 8.24789 7.99753C8.27304 7.98915 8.2998 7.98674 8.32605 7.99049H10.945C10.9654 7.98761 10.9862 7.98952 11.0057 7.99606C11.0253 8.00259 11.043 8.01358 11.0576 8.02815C11.0722 8.04273 11.0832 8.06049 11.0897 8.08003C11.0962 8.09958 11.0981 8.12038 11.0953 8.14078V19.3464H17.2562C17.385 19.3464 17.4351 19.4108 17.4064 19.5396L17.0201 21.858C17.0191 21.8896 17.0109 21.9206 16.996 21.9486C16.9811 21.9765 16.96 22.0006 16.9342 22.019C16.8944 22.0397 16.8502 22.0507 16.8053 22.0512Z" fill="#31A8FF"/>
<path d="M18.9304 11.3824H21.2702C21.3338 11.3829 21.3954 11.4042 21.4458 11.4429C21.4961 11.4817 21.5325 11.5358 21.5493 11.5971C21.6004 11.6911 21.6366 11.7925 21.6566 11.8976C21.6866 12.0357 21.7081 12.1755 21.721 12.3162C21.7352 12.4665 21.7423 12.6275 21.7425 12.7992C22.1438 12.3319 22.6277 11.9426 23.1701 11.6507C23.7793 11.3213 24.4633 11.155 25.1557 11.1677C25.182 11.164 25.2087 11.1664 25.2339 11.1748C25.259 11.1832 25.2819 11.1973 25.3006 11.216C25.3194 11.2348 25.3335 11.2576 25.3419 11.2828C25.3502 11.3079 25.3527 11.3347 25.3489 11.3609V13.9584C25.3489 14.0587 25.2774 14.1088 25.1343 14.1087C24.2695 14.0552 23.4046 14.2098 22.6119 14.5595C22.3425 14.676 22.0983 14.8437 21.8928 15.0532V21.8581C21.8928 21.987 21.8355 22.0514 21.721 22.0513H19.1236C19.0944 22.0555 19.0647 22.0529 19.0367 22.0436C19.0088 22.0342 18.9834 22.0185 18.9625 21.9977C18.9417 21.9769 18.926 21.9515 18.9167 21.9235C18.9074 21.8956 18.9047 21.8658 18.9089 21.8367V14.4521C18.9089 14.1375 18.9053 13.8048 18.8982 13.4539C18.8908 13.1034 18.8801 12.7564 18.866 12.4128C18.8565 12.1179 18.8278 11.8239 18.7801 11.5327C18.7748 11.5119 18.7749 11.4901 18.7806 11.4694C18.7862 11.4486 18.7972 11.4298 18.8123 11.4146C18.8275 11.3994 18.8464 11.3884 18.8671 11.3828C18.8878 11.3772 18.9096 11.377 18.9304 11.3824H18.9304Z" fill="#31A8FF"/>
</g>
<defs>
<clipPath id="clip0_37_55">
<rect width="32" height="31.2" fill="white"/>
</clipPath>
</defs>
</svg>
