<svg width="32" height="32" viewBox="0 0 32 32" fill="none" xmlns="http://www.w3.org/2000/svg">
<g clip-path="url(#clip0_37_9)">
<path d="M26.3333 0H5.66667C2.53705 0 0 2.53705 0 5.66667V25.5333C0 28.6629 2.53705 31.2 5.66667 31.2H26.3333C29.4629 31.2 32 28.6629 32 25.5333V5.66667C32 2.53705 29.4629 0 26.3333 0Z" fill="#001E36"/>
<path d="M7.20557 21.8791V8.16195C7.20557 8.06199 7.24853 8.01169 7.33441 8.01169C7.56312 8.01169 7.77195 8.00833 8.08692 8.00094C8.40157 7.99391 8.74146 7.98676 9.10659 7.97949C9.47156 7.97243 9.85798 7.96527 10.2658 7.95801C10.6736 7.95098 11.0779 7.9474 11.4787 7.94727C12.5661 7.94727 13.482 8.08322 14.2264 8.35514C14.8978 8.58227 15.5102 8.95628 16.0189 9.44993C16.4501 9.87783 16.7833 10.3942 16.9956 10.9633C17.1964 11.5173 17.2982 12.1022 17.2962 12.6914C17.2962 13.8365 17.0314 14.7811 16.5019 15.525C15.9689 16.272 15.2197 16.8377 14.3552 17.1457C13.4536 17.4822 12.4517 17.5963 11.3499 17.5963C11.0349 17.5963 10.8131 17.5927 10.6844 17.5855C10.5556 17.5785 10.3624 17.5749 10.1048 17.5748V21.8577C10.1086 21.8839 10.1062 21.9107 10.0978 21.9358C10.0894 21.961 10.0753 21.9838 10.0565 22.0026C10.0378 22.0213 10.0149 22.0355 9.98976 22.0438C9.96461 22.0522 9.93785 22.0546 9.91161 22.0509H7.35583C7.25557 22.0509 7.20557 21.9939 7.20557 21.8791ZM10.1048 10.5877V15.0617C10.2906 15.0761 10.4624 15.0832 10.62 15.0831H11.3284C11.8496 15.0814 12.3674 14.9987 12.8633 14.8381C13.2886 14.7118 13.6686 14.4659 13.9581 14.1297C14.2371 13.8007 14.3767 13.3427 14.3767 12.7558C14.388 12.3406 14.28 11.9308 14.0654 11.5751C13.8398 11.2312 13.5137 10.9651 13.1316 10.8131C12.6326 10.6191 12.0996 10.5279 11.5645 10.5448C11.221 10.5448 10.9169 10.5483 10.6522 10.5555C10.3873 10.5629 10.2048 10.5736 10.1048 10.5877V10.5877Z" fill="#31A8FF"/>
<path d="M25.5962 14.2484C25.1927 14.0411 24.7631 13.8894 24.3189 13.7975C23.8295 13.6853 23.3291 13.6277 22.827 13.6258C22.5553 13.6184 22.2841 13.651 22.0219 13.7224C21.8551 13.7596 21.7068 13.8546 21.6033 13.9907C21.5334 14.0996 21.4961 14.2263 21.496 14.3557C21.4999 14.4812 21.5452 14.602 21.6248 14.6991C21.7502 14.8458 21.9034 14.9662 22.0756 15.0533C22.3817 15.2182 22.697 15.3651 23.0201 15.4934C23.7406 15.7346 24.429 16.0626 25.0702 16.4701C25.507 16.7458 25.8684 17.1257 26.1221 17.5757C26.3353 18.0017 26.4421 18.4732 26.4333 18.9496C26.4462 19.5786 26.2664 20.1966 25.9182 20.7206C25.5453 21.2525 25.0274 21.666 24.4262 21.9119C23.7748 22.1981 22.9698 22.3412 22.0112 22.3413C21.4022 22.3474 20.7943 22.2899 20.1973 22.1695C19.7269 22.0833 19.269 21.9391 18.8341 21.7402C18.7872 21.716 18.7481 21.6789 18.7215 21.6333C18.6949 21.5876 18.6818 21.5354 18.6839 21.4826V19.1642C18.6813 19.1415 18.6849 19.1185 18.6944 19.0977C18.7038 19.0769 18.7188 19.0591 18.7376 19.0461C18.756 19.0357 18.7772 19.0312 18.7983 19.0331C18.8193 19.035 18.8393 19.0433 18.8556 19.0569C19.3692 19.3597 19.9269 19.5806 20.5085 19.7116C21.0212 19.8401 21.5471 19.9086 22.0756 19.9155C22.5764 19.9155 22.9449 19.8511 23.1811 19.7223C23.2878 19.6735 23.378 19.5948 23.4409 19.4957C23.5038 19.3967 23.5366 19.2815 23.5354 19.1642C23.5354 18.9784 23.428 18.7995 23.2134 18.6276C22.9987 18.4558 22.5622 18.2483 21.9038 18.005C21.2298 17.7704 20.5907 17.4454 20.004 17.039C19.5844 16.7472 19.2389 16.3612 18.9951 15.912C18.784 15.489 18.6773 15.0216 18.6839 14.5489C18.6827 13.9809 18.8387 13.4237 19.1346 12.9389C19.4721 12.405 19.9567 11.9801 20.53 11.7153C21.1596 11.4007 21.9467 11.2432 22.8914 11.243C23.4446 11.2386 23.9973 11.278 24.5443 11.3611C24.9404 11.4113 25.3276 11.5161 25.695 11.6723C25.7242 11.6807 25.751 11.6957 25.7733 11.7162C25.7957 11.7367 25.813 11.7621 25.8238 11.7904C25.8383 11.8428 25.8456 11.897 25.8453 11.9514V14.1195C25.8468 14.1448 25.8416 14.17 25.8303 14.1926C25.819 14.2152 25.802 14.2344 25.7809 14.2484C25.7522 14.2626 25.7206 14.2701 25.6885 14.2701C25.6565 14.2701 25.6249 14.2626 25.5962 14.2484Z" fill="#31A8FF"/>
</g>
<defs>
<clipPath id="clip0_37_9">
<rect width="32" height="31.2" fill="white"/>
</clipPath>
</defs>
</svg>
