<svg width="32" height="32" viewBox="0 0 32 32" fill="none" xmlns="http://www.w3.org/2000/svg">
<g clip-path="url(#clip0_37_85)">
<path d="M5.66667 0H26.3333C29.4667 0 32 2.53333 32 5.66667V25.5333C32 28.6667 29.4667 31.2 26.3333 31.2H5.66667C2.53333 31.2 0 28.6667 0 25.5333V5.66667C0 2.53333 2.53333 0 5.66667 0Z" fill="#00005B"/>
<path d="M7.59998 21.8798V8.15977C7.59998 8.06644 7.63998 8.01311 7.73331 8.01311C7.95998 8.01311 8.17331 8.01311 8.47998 7.99977C8.79998 7.98644 9.13331 7.98644 9.49331 7.97311C9.85331 7.95977 10.24 7.95977 10.6533 7.94644C11.0666 7.93311 11.4666 7.93311 11.8666 7.93311C12.96 7.93311 13.8666 8.06644 14.6133 8.34644C15.28 8.57311 15.8933 8.94644 16.4 9.43977C16.8266 9.86644 17.16 10.3864 17.3733 10.9598C17.5733 11.5198 17.68 12.0931 17.68 12.6931C17.68 13.8398 17.4133 14.7864 16.88 15.5331C16.3466 16.2798 15.6 16.8398 14.7333 17.1598C13.8266 17.4931 12.8266 17.6131 11.7333 17.6131C11.4133 17.6131 11.2 17.6131 11.0666 17.5998C10.9333 17.5864 10.7466 17.5864 10.4933 17.5864V21.8664C10.5066 21.9598 10.44 22.0398 10.3466 22.0531C10.3333 22.0531 10.32 22.0531 10.2933 22.0531H7.75998C7.65331 22.0531 7.59998 21.9998 7.59998 21.8798ZM10.5066 10.5864V15.0664C10.6933 15.0798 10.8666 15.0931 11.0266 15.0931H11.7333C12.2533 15.0931 12.7733 15.0131 13.2666 14.8531C13.6933 14.7331 14.0666 14.4798 14.36 14.1464C14.64 13.8131 14.7733 13.3598 14.7733 12.7731C14.7866 12.3598 14.68 11.9464 14.4666 11.5864C14.24 11.2398 13.92 10.9731 13.5333 10.8264C13.04 10.6264 12.5066 10.5464 11.96 10.5598C11.6133 10.5598 11.3066 10.5598 11.0533 10.5731C10.7866 10.5598 10.6 10.5731 10.5066 10.5864Z" fill="#9999FF"/>
<path d="M19.5467 11.3597H21.88C22.0133 11.3597 22.12 11.453 22.16 11.573C22.2 11.6797 22.2267 11.7864 22.24 11.9064C22.2667 12.0397 22.2933 12.1864 22.3067 12.3197C22.32 12.4664 22.3333 12.6264 22.3333 12.7997C22.7333 12.333 23.2133 11.9464 23.76 11.653C24.3733 11.3064 25.08 11.133 25.7867 11.133C25.88 11.1197 25.96 11.1864 25.9733 11.2797C25.9733 11.293 25.9733 11.3064 25.9733 11.333V13.933C25.9733 14.0397 25.9067 14.0797 25.76 14.0797C25.28 14.0664 24.7867 14.1064 24.32 14.213C23.9333 14.293 23.56 14.413 23.2 14.573C22.9467 14.693 22.7067 14.853 22.52 15.0664V21.8664C22.52 21.9997 22.4667 22.053 22.3467 22.053H19.72C19.6133 22.0664 19.52 21.9997 19.5067 21.893C19.5067 21.8797 19.5067 21.853 19.5067 21.8397V14.453C19.5067 14.133 19.5067 13.7997 19.4933 13.453C19.48 13.1064 19.48 12.7597 19.4667 12.413C19.4667 12.1064 19.44 11.813 19.4133 11.5064C19.4 11.4397 19.44 11.373 19.5067 11.3597C19.5067 11.3464 19.5333 11.3464 19.5467 11.3597Z" fill="#9999FF"/>
</g>
<defs>
<clipPath id="clip0_37_85">
<rect width="32" height="31.2" fill="white"/>
</clipPath>
</defs>
</svg>
