<svg width="32" height="32" viewBox="0 0 32 32" fill="none" xmlns="http://www.w3.org/2000/svg">
<path d="M15.6368 0.00026174C14.3317 0.00632582 13.0854 0.117631 11.9887 0.31168C8.75817 0.882413 8.17162 2.077 8.17162 4.28004V7.18957H15.8058V8.15942H8.17162H5.30658C3.08787 8.15942 1.1451 9.49299 0.537429 12.0299C-0.163513 14.9378 -0.194604 16.7524 0.537429 19.7887C1.08009 22.0488 2.37605 23.6591 4.59476 23.6591H7.21957V20.1713C7.21957 17.6515 9.39975 15.4288 11.9887 15.4288H19.614C21.7366 15.4288 23.4311 13.6811 23.4311 11.5494V4.28004C23.4311 2.21113 21.6858 0.656973 19.614 0.31168C18.3026 0.0933739 16.9418 -0.00580242 15.6368 0.00026174ZM11.5082 2.34035C12.2968 2.34035 12.9408 2.99483 12.9408 3.79956C12.9408 4.60144 12.2968 5.24988 11.5082 5.24988C10.7169 5.24988 10.0757 4.60144 10.0757 3.79956C10.0757 2.99483 10.7169 2.34035 11.5082 2.34035Z" fill="url(#paint0_linear_39_171)"/>
<path d="M24.3832 8.15967V11.5497C24.3832 14.1779 22.1549 16.39 19.614 16.39H11.9887C9.90003 16.39 8.17163 18.1776 8.17163 20.2694V27.5388C8.17163 29.6077 9.97069 30.8246 11.9887 31.4182C14.4053 32.1287 16.7226 32.2571 19.614 31.4182C21.536 30.8617 23.4311 29.7418 23.4311 27.5388V24.6292H15.8058V23.6594H23.4311H27.2482C29.4669 23.6594 30.2937 22.1118 31.0653 19.7889C31.8624 17.3975 31.8284 15.0978 31.0653 12.0302C30.517 9.82141 29.4697 8.15967 27.2482 8.15967H24.3832ZM20.0945 26.5689C20.8859 26.5689 21.527 27.2174 21.527 28.0192C21.527 28.824 20.8859 29.4785 20.0945 29.4785C19.3059 29.4785 18.662 28.824 18.662 28.0192C18.662 27.2174 19.3059 26.5689 20.0945 26.5689Z" fill="url(#paint1_linear_39_171)"/>
<defs>
<linearGradient id="paint0_linear_39_171" x1="-9.51063e-08" y1="-8.26161e-08" x2="17.6036" y2="15.0007" gradientUnits="userSpaceOnUse">
<stop stop-color="#5A9FD4"/>
<stop offset="1" stop-color="#306998"/>
</linearGradient>
<linearGradient id="paint1_linear_39_171" x1="19.911" y1="27.7746" x2="13.5955" y2="18.9247" gradientUnits="userSpaceOnUse">
<stop stop-color="#FFD43B"/>
<stop offset="1" stop-color="#FFE873"/>
</linearGradient>
</defs>
</svg>
