<svg width="32" height="32" viewBox="0 0 32 32" fill="none" xmlns="http://www.w3.org/2000/svg">
<g clip-path="url(#clip0_37_34)">
<path d="M5.66667 0H26.3333C29.4629 0 32 2.53707 32 5.66667V25.5333C32 28.6629 29.4629 31.2 26.3333 31.2H5.66667C2.53707 31.2 0 28.6629 0 25.5333V5.66667C0 2.53707 2.53707 0 5.66667 0Z" fill="#1E3101"/>
<path d="M6.92147 21.8793V8.16207C6.92147 8.06207 6.9644 8.0118 7.05027 8.0118C7.27907 8.0118 7.55093 8.0082 7.866 8.001C8.18053 7.99393 8.52053 7.98687 8.8856 7.97953C9.25054 7.97247 9.63693 7.96527 10.0448 7.95807C10.4527 7.951 10.8569 7.9474 11.2577 7.94727C12.3452 7.94727 13.2611 8.08327 14.0055 8.35513C14.6769 8.5822 15.2892 8.95633 15.7979 9.44993C16.2291 9.8778 16.5623 10.3942 16.7747 10.9634C16.9755 11.5173 17.0772 12.1023 17.0752 12.6914C17.0752 13.8365 16.8104 14.781 16.2809 15.525C15.7479 16.2721 14.9987 16.8377 14.1343 17.1458C13.1708 17.4927 12.1528 17.6637 11.1289 17.6503C10.814 17.6503 10.5923 17.6467 10.4635 17.6395C10.3347 17.6325 10.1415 17.6289 9.88387 17.6287V21.8577C9.8972 21.951 9.8324 22.0375 9.73907 22.0509C9.72307 22.0531 9.7068 22.0531 9.6908 22.0509H7.07173C6.97147 22.051 6.92147 21.9941 6.92147 21.8793ZM9.88387 10.5878V15.0314C10.0697 15.0458 10.2415 15.053 10.3991 15.0529H11.1075C11.6271 15.0605 12.1447 14.9881 12.6423 14.8382C13.0676 14.7119 13.4476 14.4659 13.7371 14.1298C14.0161 13.8007 14.1557 13.3429 14.1557 12.7559C14.1671 12.3407 14.0591 11.9309 13.8445 11.5753C13.6189 11.2314 13.2929 10.9653 12.9108 10.8133C12.4119 10.6193 11.8788 10.5281 11.3437 10.545C11.0003 10.545 10.6961 10.5486 10.4313 10.5557C10.1663 10.563 9.98387 10.5738 9.88387 10.5878Z" fill="#99E83F"/>
<path d="M25.0392 19.9256V21.6859C25.0392 21.8435 24.982 21.9366 24.8675 21.9649C24.5858 22.0532 24.299 22.1249 24.0088 22.1796C23.6688 22.2401 23.3238 22.2689 22.9784 22.2655C22.0479 22.2655 21.3182 22.0222 20.7888 21.5356C20.2592 21.0492 19.9944 20.2694 19.9946 19.1958V13.872H18.728C18.6134 13.872 18.5563 13.8076 18.5563 13.6788V11.5536C18.5563 11.4392 18.6207 11.382 18.7495 11.3819H20.016C20.0302 11.1387 20.048 10.856 20.0698 10.534C20.0912 10.212 20.1198 9.89002 20.1556 9.56802C20.1912 9.24602 20.2234 8.98482 20.2522 8.78455C20.2663 8.74162 20.2882 8.70162 20.3166 8.66655C20.3443 8.63162 20.3815 8.60549 20.4239 8.59149L22.9784 8.26948C23.0344 8.26028 23.0707 8.26028 23.0964 8.27535C23.1248 8.28975 23.1287 8.32682 23.1287 8.39828C23.0999 8.72762 23.0784 9.17495 23.0643 9.73988C23.0499 10.3054 23.0355 10.8528 23.0214 11.382H25.0178C25.1036 11.382 25.1466 11.4392 25.1466 11.5538V13.7219C25.1575 13.7928 25.1099 13.8595 25.0392 13.8722H22.9999V18.466C22.9999 18.9527 23.0822 19.2997 23.2468 19.5071C23.4111 19.7147 23.7152 19.8186 24.1591 19.8184C24.2879 19.8184 24.4092 19.8151 24.524 19.8076C24.6384 19.8006 24.753 19.7899 24.8675 19.7755C24.9064 19.7609 24.9499 19.7648 24.9855 19.7861C25.0211 19.8076 25.0392 19.8541 25.0392 19.9256Z" fill="#99E83F"/>
</g>
<defs>
<clipPath id="clip0_37_34">
<rect width="32" height="31.2" fill="white"/>
</clipPath>
</defs>
</svg>
