<svg width="29" height="32" viewBox="0 0 29 32" fill="none" xmlns="http://www.w3.org/2000/svg">
<g clip-path="url(#clip0_39_127)">
<path d="M28.3561 22.3934V7.45342L15.4037 0V5.73085L20.472 8.64596C20.6708 8.74534 20.6708 9.04348 20.472 9.14286L14.4431 12.6211C14.2774 12.7205 14.0455 12.7205 13.8799 12.6211L7.85093 9.14286C7.65217 9.04348 7.65217 8.74534 7.85093 8.64596L12.9193 5.73085V0L0 7.45342V22.3934V22.3271V22.3934L4.96894 19.5445V13.6812C4.96894 13.4824 5.20083 13.3168 5.39959 13.4493L11.4286 16.9275C11.5942 17.0269 11.7267 17.2257 11.7267 17.4244V24.381C11.7267 24.5797 11.4948 24.7453 11.2961 24.6128L6.22774 21.6977L1.2588 24.5466L14.1781 32L27.0973 24.5466L22.1284 21.6977L17.06 24.6128C16.8944 24.7122 16.6294 24.5797 16.6294 24.381V17.4244C16.6294 17.2257 16.7288 17.0269 16.9275 16.9275L22.9565 13.4493C23.1222 13.3499 23.3872 13.4824 23.3872 13.6812V19.5445L28.3561 22.3934Z" fill="#4C4C4C"/>
<path d="M14.1781 32.0002L27.0973 24.5468L22.1284 21.6979L17.06 24.613C16.8944 24.7124 16.6294 24.5799 16.6294 24.3811V17.4246C16.6294 17.2259 16.7288 17.0271 16.9275 16.9277L22.9565 13.4495C23.1222 13.3501 23.3872 13.4826 23.3872 13.6814V19.5447L28.3561 22.3936V7.45361L14.1781 15.6358V32.0002Z" fill="black"/>
<path d="M15.4037 0V5.73085L20.472 8.64596C20.6708 8.74534 20.6708 9.04348 20.472 9.14286L14.4431 12.6211C14.2774 12.7205 14.0455 12.7205 13.8799 12.6211L7.85093 9.14286C7.65217 9.04348 7.65217 8.74534 7.85093 8.64596L12.9193 5.73085V0L0 7.45342L14.1781 15.6356L28.3561 7.45342L15.4037 0Z" fill="#808080"/>
<path d="M11.2629 24.613L6.19462 21.6979L1.22567 24.5468L14.1449 32.0002V15.6358L0 7.45361V22.3936V22.3273V22.3936L4.96894 19.5447V13.6814C4.96894 13.4826 5.20083 13.317 5.39959 13.4495L11.4286 16.9277C11.5942 17.0271 11.7267 17.2259 11.7267 17.4246V24.3811C11.6936 24.5799 11.4617 24.7124 11.2629 24.613Z" fill="#4C4C4C"/>
</g>
<defs>
<clipPath id="clip0_39_127">
<rect width="28.3561" height="32" fill="white"/>
</clipPath>
</defs>
</svg>
