<svg width="32" height="32" viewBox="0 0 32 32" fill="none" xmlns="http://www.w3.org/2000/svg">
<g clip-path="url(#clip0_39_193)">
<path d="M30.8492 3.35678L24.2637 0.191942C23.4965 -0.159707 22.6014 -0.0318345 21.994 0.575558L0.447552 20.2359C-0.127873 20.7794 -0.127873 21.6745 0.447552 22.2179L2.20579 23.8163C2.68531 24.2639 3.38861 24.2639 3.9001 23.8803L29.8581 4.18795C30.7213 3.51662 31.968 4.15598 31.968 5.24289V5.17896C32 4.41172 31.5524 3.70843 30.8492 3.35678Z" fill="#0065A9"/>
<path d="M30.8492 28.4196L24.2637 31.5845C23.4965 31.9361 22.6014 31.8083 21.994 31.2009L0.447552 11.5725C-0.127873 11.029 -0.127873 10.1339 0.447552 9.59047L2.20579 7.99207C2.68531 7.54451 3.38861 7.54451 3.9001 7.92813L29.8581 27.6204C30.7213 28.2918 31.968 27.6524 31.968 26.5655V26.6294C32 27.3967 31.5524 28.1 30.8492 28.4196Z" fill="#007ACC"/>
<path d="M24.2637 31.6165C23.4965 31.9681 22.6014 31.8402 21.994 31.2329C22.7293 31.9681 24.008 31.4566 24.008 30.4017V1.40668C24.008 0.351733 22.7612 -0.159756 21.994 0.575509C22.6014 -0.0318836 23.4965 -0.191724 24.2637 0.191893L30.8491 3.35673C31.5524 3.67641 31.968 4.3797 31.968 5.14694V26.6295C31.968 27.3967 31.5205 28.1 30.8491 28.4197L24.2637 31.6165Z" fill="#1F9CF0"/>
<g opacity="0.25">
<path fill-rule="evenodd" clip-rule="evenodd" d="M22.6653 31.6805C23.1768 31.8723 23.7522 31.8723 24.2637 31.6166L30.8492 28.4517C31.5524 28.132 31.968 27.4288 31.968 26.6615V5.179C31.968 4.41177 31.5205 3.70847 30.8492 3.38879L24.2637 0.191988C23.5924 -0.127693 22.8252 -0.0637565 22.2178 0.383796C22.1219 0.447732 22.0579 0.511668 21.994 0.575604L9.3986 12.0841L3.9001 7.92825C3.38861 7.54463 2.68531 7.5766 2.20579 7.99219L0.447552 9.59059C-0.127873 10.134 -0.127873 11.0292 0.447552 11.5726L5.21079 15.9203L0.447552 20.2359C-0.127873 20.7794 -0.127873 21.6745 0.447552 22.218L2.20579 23.8164C2.68531 24.2639 3.38861 24.2639 3.9001 23.8803L9.3986 19.7245L21.994 31.2329C22.1858 31.4248 22.4096 31.5846 22.6653 31.6805ZM23.976 8.63155L14.4176 15.8883L23.976 23.145V8.63155Z" fill="url(#paint0_linear_39_193)"/>
</g>
</g>
<defs>
<linearGradient id="paint0_linear_39_193" x1="15.984" y1="0.000211477" x2="15.984" y2="31.8034" gradientUnits="userSpaceOnUse">
<stop stop-color="white"/>
<stop offset="1" stop-color="white" stop-opacity="0"/>
</linearGradient>
<clipPath id="clip0_39_193">
<rect width="32" height="31.8082" fill="white"/>
</clipPath>
</defs>
</svg>
