<svg width="35" height="24" viewBox="0 0 35 24" fill="none" xmlns="http://www.w3.org/2000/svg">
<path d="M30.5882 0H4.28748C2.41079 0 0.876953 1.53383 0.876953 3.41053V20.5895C0.876953 22.4662 2.41079 24 4.28748 24H30.5973C32.4739 24 34.0078 22.4662 34.0078 20.5895V3.41053C33.9988 1.53383 32.4649 0 30.5882 0ZM29.0364 3.23008L17.4333 13.3714L5.83034 3.23008H29.0364ZM3.5747 19.8947V4.85414L12.092 12.2977L3.5747 19.8947ZM6.12808 21.2481L14.1582 14.0932L16.5491 16.1865C17.0544 16.6286 17.8213 16.6286 18.3266 16.1865L20.7627 14.0571L28.8379 21.2571H6.12808V21.2481ZM31.292 19.8226L22.8108 12.2617L31.292 4.84511V19.8226Z" fill="black"/>
</svg>
