<svg width="24" height="24" viewBox="0 0 24 24" fill="none" xmlns="http://www.w3.org/2000/svg">
<path d="M5.16444 23.992H0.0078125V7.96787H5.16444V23.992ZM2.76283 5.53414H2.72267C1.07609 5.53414 0.0078125 4.30522 0.0078125 2.76305C0.0078125 1.19679 1.10821 0 2.79496 0C4.48171 0 5.50982 1.18876 5.54998 2.76305C5.54998 4.30522 4.48171 5.5261 2.76283 5.53414ZM23.9998 23.992H18.8432V15.2289C18.8432 13.1325 18.0962 11.6948 16.2247 11.6948C14.803 11.6948 13.9596 12.6586 13.5821 13.5984C13.4375 13.9357 13.4054 14.3936 13.4054 14.8675V24H8.24878V7.96787H13.4054V10.2008C14.1524 9.13253 15.3251 7.59839 18.056 7.59839C21.4375 7.59839 23.9998 9.83133 23.9998 14.6345V23.992Z" fill="black"/>
</svg>
